<svg width="15.833" height="15.833" fill="none" xmlns="http://www.w3.org/2000/svg"><path d="M7.917 5.542a2.375 2.375 0 100 4.75 2.375 2.375 0 000-4.75zm0-1.584a3.958 3.958 0 110 7.916 3.958 3.958 0 010-7.916zm5.146-.198a.99.99 0 11-1.98 0 .99.99 0 011.98 0zM7.917 1.583c-1.959 0-2.279.006-3.19.046-.62.03-1.037.113-1.423.263a2.281 2.281 0 00-.855.557 2.278 2.278 0 00-.558.855c-.15.388-.233.803-.262 1.423-.04.874-.046 1.18-.046 3.19 0 1.958.006 2.278.046 3.19.03.62.113 1.036.262 1.422.135.344.293.592.556.855.267.266.515.425.855.556.391.152.808.236 1.425.264.874.041 1.18.046 3.19.046 1.958 0 2.278-.005 3.19-.046.618-.03 1.036-.112 1.422-.262.343-.134.592-.293.855-.556a2.27 2.27 0 00.557-.855c.15-.39.234-.807.263-1.425.041-.874.046-1.18.046-3.19 0-1.958-.006-2.278-.046-3.189-.03-.62-.112-1.037-.263-1.423a2.304 2.304 0 00-.556-.855 2.285 2.285 0 00-.855-.558c-.388-.15-.805-.233-1.424-.262-.874-.04-1.18-.046-3.19-.046zm0-1.583c2.15 0 2.419.008 3.263.047.843.04 1.417.172 1.922.369a3.86 3.86 0 011.403.912c.402.396.714.875.913 1.403.195.505.328 1.08.368 1.922.037.844.047 1.113.047 3.264 0 2.15-.008 2.42-.047 3.263-.04.843-.173 1.417-.368 1.922a3.865 3.865 0 01-.913 1.403 3.89 3.89 0 01-1.403.913c-.504.195-1.08.328-1.922.368-.844.037-1.112.047-3.263.047s-2.42-.008-3.264-.047c-.843-.04-1.417-.173-1.922-.368a3.872 3.872 0 01-1.403-.913 3.883 3.883 0 01-.912-1.403c-.197-.504-.329-1.079-.368-1.922C.01 10.336 0 10.068 0 7.917s.008-2.42.048-3.264c.04-.844.171-1.417.368-1.922.198-.528.51-1.007.912-1.403A3.876 3.876 0 012.731.416C3.236.219 3.81.087 4.653.047 5.497.01 5.766 0 7.917 0z" fill="#E0BEA2"/></svg>