<svg width="194.792" height="40" fill="none" xmlns="http://www.w3.org/2000/svg"><path d="M81.765 38.076c.205 0 .307.123.307.368 0 .246-.102.369-.307.369-.819 0-2.088-.041-3.808-.123-1.801-.082-3.09-.123-3.869-.123-1.023 0-2.272.041-3.746.123a59.554 59.554 0 01-3.316.123c-.164 0-.246-.123-.246-.369 0-.245.082-.368.246-.368 1.064 0 1.822-.103 2.272-.307q.34-.17.523-.445.214-.32.214-.784c0-.696-.409-1.862-1.228-3.5l-4.176-8.29H49.523l-2.395 5.342q-.798 1.781-.798 3.316c0 1.474.512 2.62 1.535 3.44 1.065.818 2.477 1.228 4.237 1.228.206 0 .308.123.308.368 0 .246-.102.369-.307.369-.737 0-1.802-.041-3.194-.123a78.572 78.572 0 00-4.053-.123c-1.105 0-2.436.041-3.992.123a60.096 60.096 0 01-3.378.123c-.163 0-.245-.123-.245-.369 0-.245.082-.368.245-.368 1.147 0 2.11-.225 2.887-.676.778-.491 1.556-1.33 2.334-2.518.777-1.228 1.699-3.03 2.763-5.404L58.797.184Q58.919 0 59.35 0c.327 0 .511.061.552.184L75.255 30.4q2.15 4.36 3.562 6.019c.942 1.105 1.924 1.658 2.948 1.658zM38.283.434q.1.033.1.364 0 .332-.1.365-.01.004-.023.004c-1.27 0-2.825.798-4.667 2.395q-2.764 2.334-4.913 5.896l-6.387 10.685v13.695c0 1.27.102 2.19.307 2.764a1.84 1.84 0 001.167 1.167c.614.204 1.576.307 2.886.307q.037 0 .066.014.118.06.118.354c0 .246-.061.369-.184.369-1.351 0-2.416-.02-3.194-.062l-4.605-.061-4.545.061c-.819.041-1.924.062-3.316.062-.082 0-.123-.123-.123-.369 0-.245.041-.368.123-.368 1.31 0 2.272-.103 2.886-.307.614-.205 1.024-.594 1.228-1.167.246-.614.37-1.535.37-2.764V21.433L6.51 7.493Q4.237 3.93 2.702 2.578C1.72 1.638.88 1.167.184 1.167q-.037 0-.066-.015Q0 1.093 0 .798 0 .504.118.445.148.43.184.43l1.904.06c.9.082 1.536.123 1.904.123 1.433 0 3.5-.04 6.202-.123l4.054-.06c.082 0 .123.123.123.368 0 .246-.041.369-.123.369-.696 0-1.249.164-1.659.491q-.213.19-.344.426-.208.374-.208.864c0 .655.286 1.433.86 2.333l8.413 13.266 5.65-9.642q1.658-2.764 1.658-4.729c0-.983-.307-1.72-.92-2.21-.574-.533-1.413-.8-2.519-.8-.123 0-.184-.122-.184-.368 0-.245.061-.368.184-.368l3.255.061c1.883.082 3.562.123 5.036.123.696 0 1.535-.04 2.518-.123L38.26.43q.012 0 .023.004zm91.004.364c0-.245-.041-.368-.122-.368l-2.764.061a66.12 66.12 0 01-3.439.123c-.901 0-2.006-.04-3.316-.123L117.005.43c-.082 0-.123.123-.123.368 0 .246.041.369.123.369 1.597 0 2.845.634 3.746 1.904.9 1.269 1.351 3.009 1.351 5.22v19.836L100.853 3.623c-.287-.327-.778-.962-1.474-1.903-.41-.533-.696-.88-.86-1.044-.163-.164-.409-.246-.736-.246q-1.229 0-2.089.061l-4.667.062c-1.023 0-1.801-.02-2.334-.062L86.114.43q-.012 0-.023.004-.1.033-.1.364 0 .332.1.365.011.004.023.004.384 0 .76.054 1.129.16 2.188.806 1.474.798 3.5 3.009v25.977c0 2.17-.532 3.89-1.596 5.159-1.024 1.27-2.436 1.904-4.237 1.904-.123 0-.185.123-.185.368 0 .246.062.369.184.369 1.31 0 2.314-.02 3.01-.062l3.807-.061 3.316.061a42.6 42.6 0 002.641.062c.082 0 .123-.123.123-.369 0-.245-.041-.368-.123-.368-1.597 0-2.845-.635-3.746-1.904-.9-1.27-1.351-2.989-1.351-5.159V7.123l28.803 32.795c.081.082.204.102.368.062.205-.041.307-.123.307-.246V8.29c0-2.17.471-3.89 1.412-5.159.942-1.31 2.232-1.965 3.87-1.965.081 0 .122-.123.122-.369zm44.484 37.278c.123 0 .185.123.185.368 0 .246-.062.369-.185.369h-6.878c-.655 0-1.207.02-1.658.061-.45.041-.819.061-1.105.061-.655 0-1.229-.143-1.72-.43-.45-.327-1.023-.9-1.72-1.719-.654-.819-1.842-2.395-3.562-4.729a12 12 0 00-.736-.92 38.78 38.78 0 00-.86-1.23L147.487 19.1l-1.351 1.351v13.388c0 1.27.102 2.19.307 2.764a1.84 1.84 0 001.167 1.167c.614.204 1.576.307 2.886.307.164 0 .246.123.246.368 0 .246-.082.369-.246.369a62.86 62.86 0 01-3.193-.062l-4.606-.061-4.545.061c-.819.041-1.924.062-3.316.062-.082 0-.123-.123-.123-.369q0-.332.099-.364.012-.004.024-.004c1.31 0 2.272-.103 2.886-.307.614-.205 1.024-.594 1.229-1.167.245-.614.368-1.535.368-2.764V5.404c0-1.228-.123-2.129-.368-2.702-.205-.573-.615-.962-1.229-1.167-.573-.245-1.494-.368-2.763-.368-.123 0-.185-.123-.185-.369 0-.245.062-.368.185-.368l3.254.061c1.884.082 3.378.123 4.484.123 1.228 0 2.784-.04 4.667-.123l3.132-.061c.123 0 .184.123.184.368 0 .246-.061.369-.184.369-1.269 0-2.211.123-2.825.368-.573.246-.983.676-1.228 1.29-.205.573-.307 1.474-.307 2.702v13.02l11.545-11.792c1.188-1.187 1.781-2.272 1.781-3.255q0-.497-.199-.895-.243-.486-.784-.824c-.654-.41-1.576-.614-2.763-.614-.123 0-.184-.123-.184-.369 0-.245.061-.368.184-.368l2.887.061c1.801.082 3.48.123 5.035.123 1.679 0 3.419-.04 5.22-.123l2.764-.061c.123 0 .184.123.184.368 0 .246-.061.369-.184.369-1.883 0-3.951.553-6.203 1.658-2.252 1.064-4.298 2.497-6.141 4.299l-6.94 7.062 9.09 12.283c2.661 3.807 4.646 6.51 5.957 8.106 1.35 1.556 2.435 2.539 3.254 2.948.819.368 1.863.553 3.132.553zm16.783-1.474c-.205-.573-.307-1.495-.307-2.764V5.528q0-1.843.307-2.703c.204-.614.614-1.044 1.228-1.29.614-.245 1.556-.368 2.825-.368.123 0 .185-.123.185-.369 0-.245-.062-.368-.185-.368l-3.132.061c-1.883.082-3.459.123-4.729.123-1.146 0-2.661-.04-4.544-.123L178.885.43c-.081 0-.122.123-.122.368 0 .246.041.369.122.369 1.311 0 2.273.123 2.887.368.614.205 1.023.594 1.228 1.167.246.573.369 1.474.369 2.702v28.434c0 1.228-.123 2.15-.369 2.764-.205.573-.614.962-1.228 1.167-.614.204-1.576.307-2.887.307-.081 0-.122.123-.122.368 0 .246.041.369.122.369a69.9 69.9 0 003.317-.062l4.544-.061 4.668.061c.777.041 1.842.062 3.193.062.123 0 .185-.123.185-.369 0-.245-.062-.368-.185-.368-1.31 0-2.272-.103-2.886-.307a1.836 1.836 0 01-1.167-1.167zM50.322 23.03h13.387L56.648 9.028 50.322 23.03z" fill="#E0BEA2" fill-rule="evenodd"/></svg>