<svg width="158.089" height="40" fill="none" xmlns="http://www.w3.org/2000/svg"><path d="M4.338 0l13.07 21.521L30.592 0h4.281L19.38 25.127V40h-3.943V25.014L0 0h4.338zm44.41 0h3.323l16.62 40h-4.169l-5.183-12.507H41.367L36.24 40h-4.225L48.747 0zm29.62 40V7.268L104.229 40h3.662V.056h-3.944v33.296L77.693 0h-3.268v40h3.944zm39.576 0V.056h3.944v23.212L143.916 0h4.338l-16.338 17.578L149.099 40h-4.451l-15.267-20.056-7.493 7.774V40h-3.944zm36.202-40v40h3.943V0h-3.943zM58.438 24.394L50.38 4.62l-8.169 19.774h16.225z" fill="#FFF" fill-rule="evenodd"/></svg>