<svg width="15.000000" height="13.863525" viewBox="0 0 15 13.8635" fill="none" xmlns="http://www.w3.org/2000/svg" xmlns:xlink="http://www.w3.org/1999/xlink">
	<desc>
			Created with Pixso.
	</desc>
	<defs/>
	<path id="Vector" d="M7.50073 1.14673C9.26245 -0.435059 11.9849 -0.382568 13.6819 1.31775C15.3784 3.01868 15.437 5.72766 13.8589 7.49463L7.49902 13.8635L1.14062 7.49463C-0.437256 5.72766 -0.37793 3.01416 1.31763 1.31775C3.01636 -0.380249 5.73364 -0.437256 7.50073 1.14673ZM12.6201 2.37744C11.4951 1.25098 9.68018 1.2052 8.50269 2.2627L7.50146 3.16113L6.49927 2.26343C5.31812 1.20447 3.50684 1.25098 2.37891 2.37891C1.26147 3.49646 1.20532 5.28516 2.23486 6.46716L7.49976 11.7402L12.7646 6.4679C13.7952 5.28516 13.739 3.49866 12.6201 2.37744Z" fill="#FFFFFF" fill-opacity="1.000000" fill-rule="nonzero"/>
</svg>
