<svg width="25.000000" height="25.000000" viewBox="0 0 25 25" fill="none" xmlns="http://www.w3.org/2000/svg" xmlns:xlink="http://www.w3.org/1999/xlink">
	<desc>
			Created with Pixso.
	</desc>
	<defs/>
	<path id="Vector" d="M18.75 5L25 5L25 7.5L22.5 7.5L22.5 23.75C22.5 24.08 22.36 24.39 22.13 24.63C21.89 24.86 21.58 25 21.25 25L3.75 25C3.41 25 3.1 24.86 2.86 24.63C2.63 24.39 2.5 24.08 2.5 23.75L2.5 7.5L0 7.5L0 5L6.25 5L6.25 1.25C6.25 0.91 6.38 0.6 6.61 0.36C6.85 0.13 7.16 0 7.5 0L17.5 0C17.83 0 18.14 0.13 18.38 0.36C18.61 0.6 18.75 0.91 18.75 1.25L18.75 5ZM20 7.5L5 7.5L5 22.5L20 22.5L20 7.5ZM8.75 11.25L11.25 11.25L11.25 18.75L8.75 18.75L8.75 11.25ZM13.75 11.25L16.25 11.25L16.25 18.75L13.75 18.75L13.75 11.25ZM8.75 2.5L8.75 5L16.25 5L16.25 2.5L8.75 2.5Z" fill="#E0BEA2" fill-opacity="1.000000" fill-rule="nonzero"/>
</svg>
