<svg width="15.833252" height="15.833374" viewBox="0 0 15.8333 15.8334" fill="none" xmlns="http://www.w3.org/2000/svg" xmlns:xlink="http://www.w3.org/1999/xlink">
	<desc>
			Created with Pixso.
	</desc>
	<defs/>
	<path id="Vector" d="M7.91675 5.54163C7.28687 5.54163 6.68262 5.79187 6.2373 6.2373C5.79199 6.68274 5.54175 7.28674 5.54175 7.91663C5.54175 8.54651 5.79199 9.15063 6.2373 9.59607C6.68262 10.0415 7.28687 10.2916 7.91675 10.2916C8.54663 10.2916 9.15063 10.0415 9.59595 9.59607C10.0415 9.15063 10.2917 8.54651 10.2917 7.91663C10.2917 7.28674 10.0415 6.68274 9.59595 6.2373C9.15063 5.79187 8.54663 5.54163 7.91675 5.54163ZM7.91675 3.95837C8.96655 3.95837 9.97339 4.37537 10.7156 5.11768C11.458 5.85999 11.875 6.86682 11.875 7.91663C11.875 8.96643 11.458 9.97327 10.7156 10.7156C9.97339 11.458 8.96655 11.875 7.91675 11.875C6.86694 11.875 5.86011 11.458 5.11768 10.7156C4.37549 9.97327 3.95825 8.96643 3.95825 7.91663C3.95825 6.86682 4.37549 5.85999 5.11768 5.11768C5.86011 4.37537 6.86694 3.95837 7.91675 3.95837ZM13.0625 3.76038C13.0625 4.02283 12.9583 4.27454 12.7727 4.46021C12.5872 4.64575 12.3354 4.75 12.073 4.75C11.8105 4.75 11.5588 4.64575 11.3733 4.46021C11.1875 4.27454 11.0833 4.02283 11.0833 3.76038C11.0833 3.49792 11.1875 3.24622 11.3733 3.06067C11.5588 2.87512 11.8105 2.77087 12.073 2.77087C12.3354 2.77087 12.5872 2.87512 12.7727 3.06067C12.9583 3.24622 13.0625 3.49792 13.0625 3.76038ZM7.91675 1.58337C5.95801 1.58337 5.63818 1.58887 4.72705 1.62927C4.10645 1.65857 3.68994 1.7417 3.30371 1.89209C2.95996 2.02502 2.71216 2.1842 2.44873 2.44861C2.20093 2.68799 2.01025 2.98035 1.89136 3.30359C1.74097 3.69153 1.65771 4.10718 1.62915 4.72705C1.58813 5.60107 1.58325 5.90662 1.58325 7.91663C1.58325 9.87524 1.58887 10.1951 1.62915 11.1063C1.65845 11.7262 1.7417 12.1434 1.89136 12.5289C2.02588 12.8733 2.18433 13.1211 2.44702 13.3839C2.71387 13.6499 2.96167 13.8091 3.302 13.9404C3.69312 14.0917 4.10962 14.1755 4.72705 14.2041C5.60107 14.2452 5.90674 14.25 7.91675 14.25C9.87524 14.25 10.1951 14.2445 11.1062 14.2041C11.7253 14.1748 12.1426 14.0917 12.5288 13.942C12.8718 13.8082 13.1211 13.6492 13.384 13.3864C13.6506 13.1195 13.8098 12.8717 13.9412 12.5312C14.0916 12.141 14.1755 11.7238 14.2041 11.1063C14.2454 10.2323 14.25 9.92676 14.25 7.91663C14.25 5.95813 14.2444 5.63831 14.2041 4.72705C14.1748 4.10791 14.0916 3.68994 13.9412 3.30359C13.822 2.98059 13.6318 2.68848 13.3848 2.44861C13.1455 2.20068 12.853 2.01013 12.5298 1.89124C12.1418 1.74084 11.7253 1.65771 11.1062 1.62927C10.2322 1.58813 9.92676 1.58337 7.91675 1.58337ZM7.91675 0C10.0676 0 10.3359 0.00793457 11.1799 0.0474854C12.0229 0.0870361 12.5969 0.219238 13.1021 0.415649C13.6245 0.616699 14.0647 0.889038 14.5049 1.32837C14.9075 1.72412 15.219 2.20288 15.4177 2.7312C15.6133 3.2356 15.7463 3.8103 15.7859 4.65344C15.823 5.49731 15.8333 5.76575 15.8333 7.91663C15.8333 10.0676 15.8254 10.3361 15.7859 11.1799C15.7463 12.0231 15.6133 12.597 15.4177 13.1021C15.2195 13.6307 14.908 14.1096 14.5049 14.5049C14.1091 14.9073 13.6304 15.2188 13.1021 15.4177C12.5979 15.6133 12.0229 15.7462 11.1799 15.7859C10.3359 15.823 10.0676 15.8334 7.91675 15.8334C5.76562 15.8334 5.49731 15.8254 4.65332 15.7859C3.8103 15.7462 3.23633 15.6133 2.7312 15.4177C2.20264 15.2194 1.72388 14.9078 1.32837 14.5049C0.925781 14.1093 0.614258 13.6305 0.415527 13.1021C0.219238 12.5978 0.0871582 12.0231 0.0476074 11.1799C0.0102539 10.3361 0 10.0676 0 7.91663C0 5.76575 0.0078125 5.49731 0.0476074 4.65344C0.0871582 3.80945 0.219238 3.23633 0.415527 2.7312C0.61377 2.20251 0.925293 1.72375 1.32837 1.32837C1.72388 0.925659 2.20264 0.614136 2.7312 0.415649C3.23633 0.219238 3.80957 0.0870361 4.65332 0.0474854C5.49731 0.0102539 5.76562 0 7.91675 0Z" fill="#E0BEA2" fill-opacity="1.000000" fill-rule="nonzero"/>
</svg>
