<svg width="158.089355" height="40.000000" viewBox="0 0 158.089 40" fill="none" xmlns="http://www.w3.org/2000/svg" xmlns:xlink="http://www.w3.org/1999/xlink">
	<desc>
			Created with Pixso.
	</desc>
	<defs/>
	<path id="YANKI" d="M4.33813 0L17.4084 21.5211L30.5916 0L34.8733 0L19.3804 25.1268L19.3804 40L15.4365 40L15.4365 25.0141L0 0L4.33813 0ZM48.7473 0L52.0713 0L68.6909 40L64.522 40L59.3389 27.493L41.3672 27.493L36.2402 40L32.0149 40L48.7473 0ZM78.3689 40L78.3689 7.26761L104.228 40L107.89 40L107.89 0.0563354L103.946 0.0563354L103.946 33.3521L77.6929 0L74.425 0L74.425 40L78.3689 40ZM117.944 40L117.944 0.0563354L121.888 0.0563354L121.888 23.2676L143.916 0L148.254 0L131.916 17.5775L149.099 40L144.648 40L129.381 19.9437L121.888 27.7183L121.888 40L117.944 40ZM154.146 0L154.146 40L158.089 40L158.089 0L154.146 0ZM58.4375 24.3944L50.3811 4.61972L42.2122 24.3944L58.4375 24.3944Z" fill="#FFFFFF" fill-opacity="1.000000" fill-rule="evenodd"/>
</svg>
