<svg width="194.791504" height="40.000000" viewBox="0 0 194.792 40" fill="none" xmlns="http://www.w3.org/2000/svg" xmlns:xlink="http://www.w3.org/1999/xlink">
	<desc>
			Created with Pixso.
	</desc>
	<defs/>
	<path id="YANKI" d="M81.7651 38.0757C81.9697 38.0757 82.0723 38.1986 82.0723 38.4442C82.0723 38.6898 81.9697 38.8127 81.7651 38.8127C80.9463 38.8127 79.6768 38.7717 77.9575 38.6898C76.1558 38.608 74.8662 38.567 74.0884 38.567C73.0649 38.567 71.8159 38.608 70.3423 38.6898C68.9502 38.7717 67.8447 38.8127 67.0259 38.8127C66.8623 38.8127 66.7803 38.6898 66.7803 38.4442C66.7803 38.1986 66.8623 38.0757 67.0259 38.0757C68.0903 38.0757 68.8477 37.9734 69.2983 37.7687Q69.6382 37.5986 69.8213 37.3239Q70.0352 37.0033 70.0352 36.5404C70.0352 35.8445 69.626 34.6776 68.8071 33.0399L64.6309 24.7493L49.5234 24.7493L47.1284 30.0922Q46.3301 31.873 46.3301 33.4084C46.3301 34.8823 46.8418 36.0287 47.8652 36.8475C48.9297 37.6664 50.3423 38.0757 52.1025 38.0757C52.3076 38.0757 52.4097 38.1986 52.4097 38.4442C52.4097 38.6898 52.3076 38.8127 52.1025 38.8127C51.3657 38.8127 50.3013 38.7717 48.9092 38.6898C47.3535 38.608 46.0024 38.567 44.856 38.567C43.7505 38.567 42.4199 38.608 40.8643 38.6898C39.4722 38.7717 38.3462 38.8127 37.4863 38.8127C37.3228 38.8127 37.2407 38.6898 37.2407 38.4442C37.2407 38.1986 37.3228 38.0757 37.4863 38.0757C38.6328 38.0757 39.5952 37.8506 40.373 37.4001C41.1509 36.9089 41.9287 36.0696 42.7065 34.8823C43.4844 33.6541 44.4058 31.8527 45.4702 29.478L58.7969 0.184204Q58.9194 0 59.3496 0C59.6768 0 59.8613 0.0614014 59.9023 0.184204L75.2554 30.3992Q77.4048 34.7595 78.8174 36.4176C79.7588 37.5231 80.7412 38.0757 81.7651 38.0757ZM38.2832 0.433594Q38.3828 0.466797 38.3828 0.79834Q38.3828 1.13 38.2832 1.16321Q38.2725 1.16687 38.2598 1.16687C36.9907 1.16687 35.4351 1.96521 33.5928 3.56189Q30.8291 5.89563 28.6797 9.45752L22.293 20.1433L22.293 33.8383C22.293 35.1074 22.395 36.0287 22.5996 36.6018C22.8047 37.175 23.1934 37.564 23.7666 37.7687C24.3809 37.9734 25.3428 38.0757 26.6528 38.0757Q26.6899 38.0757 26.7192 38.0903L26.7192 38.0905Q26.8374 38.1494 26.8374 38.4442C26.8374 38.6898 26.7759 38.8127 26.6528 38.8127C25.3018 38.8127 24.2373 38.7922 23.4595 38.7512L18.8535 38.6898L14.3091 38.7512C13.4902 38.7922 12.3848 38.8127 10.9927 38.8127C10.9111 38.8127 10.8701 38.6898 10.8701 38.4442C10.8701 38.1986 10.9111 38.0757 10.9927 38.0757C12.3027 38.0757 13.2651 37.9734 13.8794 37.7687C14.4932 37.564 14.9028 37.175 15.1074 36.6018C15.353 35.9877 15.4761 35.0665 15.4761 33.8383L15.4761 21.433L6.50977 7.49231Q4.2373 3.93042 2.70215 2.57935C1.71973 1.6377 0.880371 1.16687 0.184082 1.16687Q0.147461 1.16687 0.117676 1.1521L0.117676 1.1521Q0 1.09314 0 0.79834Q0 0.50354 0.117676 0.44458Q0.147461 0.429932 0.184082 0.429932L2.08789 0.491333C2.98877 0.573242 3.62354 0.614136 3.9917 0.614136C5.4248 0.614136 7.49219 0.573242 10.1943 0.491333L14.2476 0.429932C14.3296 0.429932 14.3706 0.552734 14.3706 0.79834C14.3706 1.04407 14.3296 1.16687 14.2476 1.16687C13.5518 1.16687 12.999 1.33057 12.5894 1.65808Q12.376 1.84814 12.2446 2.08411L12.2446 2.08411Q12.0366 2.45825 12.0366 2.94775C12.0366 3.60291 12.3232 4.38074 12.8965 5.28149L21.3101 18.5466L26.96 8.90479Q28.6182 6.14124 28.6182 4.17603C28.6182 3.19348 28.311 2.45654 27.6973 1.96521C27.124 1.43298 26.2847 1.16687 25.1792 1.16687C25.0562 1.16687 24.9951 1.04407 24.9951 0.79834C24.9951 0.552734 25.0562 0.429932 25.1792 0.429932L28.4341 0.491333C30.3174 0.573242 31.9961 0.614136 33.4697 0.614136C34.166 0.614136 35.0049 0.573242 35.9878 0.491333L38.2598 0.429932Q38.272 0.429932 38.2832 0.433594L38.2832 0.433594ZM129.287 0.79834C129.287 0.552734 129.246 0.429932 129.165 0.429932L126.401 0.491333C124.927 0.573242 123.781 0.614136 122.962 0.614136C122.061 0.614136 120.956 0.573242 119.646 0.491333L117.005 0.429932C116.923 0.429932 116.882 0.552734 116.882 0.79834C116.882 1.04407 116.923 1.16687 117.005 1.16687C118.602 1.16687 119.85 1.80139 120.751 3.07068C121.651 4.33984 122.102 6.07983 122.102 8.29065L122.102 28.127L100.853 3.62329C100.566 3.29578 100.075 2.66125 99.3794 1.7196C98.9697 1.18726 98.6831 0.839355 98.5195 0.675537C98.356 0.511719 98.1104 0.429932 97.7827 0.429932Q96.5542 0.429932 95.6943 0.491333L91.0273 0.552734C90.0039 0.552734 89.2256 0.532227 88.6934 0.491333L86.1143 0.429932Q86.1021 0.429932 86.0908 0.433594Q85.9912 0.466675 85.9912 0.79834Q85.9912 1.13 86.0908 1.16321Q86.1021 1.16687 86.1143 1.16687Q86.498 1.16687 86.8745 1.22058Q88.0029 1.38184 89.062 2.02661Q90.5361 2.82495 92.5625 5.03577L92.5625 31.0133C92.5625 33.1832 92.0303 34.9027 90.9658 36.172C89.9424 37.4412 88.5298 38.0757 86.7285 38.0757C86.6055 38.0757 86.5439 38.1986 86.5439 38.4442C86.5439 38.6898 86.6055 38.8127 86.7285 38.8127C88.0386 38.8127 89.0415 38.7922 89.7378 38.7512L93.5449 38.6898L96.8613 38.7512C97.4756 38.7922 98.356 38.8127 99.502 38.8127C99.584 38.8127 99.625 38.6898 99.625 38.4442C99.625 38.1986 99.584 38.0757 99.502 38.0757C97.9053 38.0757 96.6567 37.4412 95.7559 36.172C94.8555 34.9027 94.4048 33.1832 94.4048 31.0133L94.4048 7.1239L123.208 39.9181C123.289 40 123.412 40.0205 123.576 39.9795C123.781 39.9386 123.883 39.8567 123.883 39.7339L123.883 8.29065C123.883 6.12073 124.354 4.40125 125.295 3.13208C126.237 1.8219 127.527 1.16687 129.165 1.16687C129.246 1.16687 129.287 1.04407 129.287 0.79834ZM173.771 38.0757C173.894 38.0757 173.956 38.1986 173.956 38.4442C173.956 38.6898 173.894 38.8127 173.771 38.8127L166.893 38.8127C166.238 38.8127 165.686 38.8331 165.235 38.8741C164.785 38.915 164.416 38.9355 164.13 38.9355C163.475 38.9355 162.901 38.7922 162.41 38.5056C161.96 38.1781 161.387 37.6049 160.69 36.7861C160.036 35.9673 158.848 34.391 157.128 32.0574C156.924 31.7708 156.678 31.4636 156.392 31.1361C156.146 30.7677 155.859 30.3583 155.532 29.9078L147.487 19.0992L146.136 20.4503L146.136 33.8383C146.136 35.1074 146.238 36.0287 146.443 36.6018C146.647 37.175 147.037 37.564 147.61 37.7687C148.224 37.9734 149.186 38.0757 150.496 38.0757C150.66 38.0757 150.742 38.1986 150.742 38.4442C150.742 38.6898 150.66 38.8127 150.496 38.8127C149.145 38.8127 148.081 38.7922 147.303 38.7512L142.697 38.6898L138.152 38.7512C137.333 38.7922 136.228 38.8127 134.836 38.8127C134.754 38.8127 134.713 38.6898 134.713 38.4442Q134.713 38.1125 134.812 38.0795Q134.824 38.0757 134.836 38.0757C136.146 38.0757 137.108 37.9734 137.722 37.7687C138.336 37.564 138.746 37.175 138.951 36.6018C139.196 35.9877 139.319 35.0665 139.319 33.8383L139.319 5.4043C139.319 4.17603 139.196 3.27539 138.951 2.70215C138.746 2.12891 138.336 1.73999 137.722 1.53528C137.149 1.28967 136.228 1.16687 134.959 1.16687C134.836 1.16687 134.774 1.04407 134.774 0.79834C134.774 0.552734 134.836 0.429932 134.959 0.429932L138.213 0.491333C140.097 0.573242 141.591 0.614136 142.697 0.614136C143.925 0.614136 145.481 0.573242 147.364 0.491333L150.496 0.429932C150.619 0.429932 150.68 0.552734 150.68 0.79834C150.68 1.04407 150.619 1.16687 150.496 1.16687C149.227 1.16687 148.285 1.28967 147.671 1.53528C147.098 1.78101 146.688 2.21082 146.443 2.82495C146.238 3.39819 146.136 4.29883 146.136 5.5271L146.136 18.5466L157.681 6.75537C158.869 5.56812 159.462 4.48315 159.462 3.50049Q159.462 3.00305 159.263 2.6051Q159.02 2.11877 158.479 1.78101C157.825 1.37158 156.903 1.16687 155.716 1.16687C155.593 1.16687 155.532 1.04407 155.532 0.79834C155.532 0.552734 155.593 0.429932 155.716 0.429932L158.603 0.491333C160.404 0.573242 162.083 0.614136 163.638 0.614136C165.317 0.614136 167.057 0.573242 168.858 0.491333L171.622 0.429932C171.745 0.429932 171.806 0.552734 171.806 0.79834C171.806 1.04407 171.745 1.16687 171.622 1.16687C169.739 1.16687 167.671 1.7196 165.419 2.82495C163.167 3.8894 161.121 5.32239 159.278 7.1239L152.338 14.1863L161.428 26.4688C164.089 30.2764 166.074 32.9785 167.385 34.5752C168.735 36.131 169.82 37.1136 170.639 37.5231C171.458 37.8915 172.502 38.0757 173.771 38.0757ZM190.554 36.6018C190.349 36.0287 190.247 35.1074 190.247 33.8383L190.247 5.5271Q190.247 3.68469 190.554 2.82495C190.758 2.21082 191.168 1.78101 191.782 1.53528C192.396 1.28967 193.338 1.16687 194.607 1.16687C194.73 1.16687 194.792 1.04407 194.792 0.79834C194.792 0.552734 194.73 0.429932 194.607 0.429932L191.475 0.491333C189.592 0.573242 188.016 0.614136 186.746 0.614136C185.6 0.614136 184.085 0.573242 182.202 0.491333L178.885 0.429932C178.804 0.429932 178.763 0.552734 178.763 0.79834C178.763 1.04407 178.804 1.16687 178.885 1.16687C180.196 1.16687 181.158 1.28967 181.772 1.53528C182.386 1.73999 182.795 2.12891 183 2.70215C183.246 3.27539 183.369 4.17603 183.369 5.4043L183.369 33.8383C183.369 35.0665 183.246 35.9877 183 36.6018C182.795 37.175 182.386 37.564 181.772 37.7687C181.158 37.9734 180.196 38.0757 178.885 38.0757C178.804 38.0757 178.763 38.1986 178.763 38.4442C178.763 38.6898 178.804 38.8127 178.885 38.8127C180.277 38.8127 181.383 38.7922 182.202 38.7512L186.746 38.6898L191.414 38.7512C192.191 38.7922 193.256 38.8127 194.607 38.8127C194.73 38.8127 194.792 38.6898 194.792 38.4442C194.792 38.1986 194.73 38.0757 194.607 38.0757C193.297 38.0757 192.335 37.9734 191.721 37.7687C191.147 37.564 190.758 37.175 190.554 36.6018ZM50.3218 23.0297L63.7095 23.0297L56.6475 9.02759L50.3218 23.0297Z" fill="#E0BEA2" fill-opacity="1.000000" fill-rule="evenodd"/>
</svg>
