<svg width="25.000000" height="25.000000" viewBox="0 0 25 25" fill="none" xmlns="http://www.w3.org/2000/svg" xmlns:xlink="http://www.w3.org/1999/xlink">
	<desc>
			Created with Pixso.
	</desc>
	<defs/>
	<path id="Vector" d="M19.72 17.98L25 23.25L23.25 25L17.98 19.72C16.02 21.3 13.58 22.15 11.07 22.15C4.96 22.15 0 17.19 0 11.07C0 4.96 4.96 0 11.07 0C17.19 0 22.15 4.96 22.15 11.07C22.15 13.58 21.3 16.02 19.72 17.98ZM17.26 17.07C18.82 15.46 19.69 13.31 19.69 11.07C19.69 6.31 15.83 2.46 11.07 2.46C6.31 2.46 2.46 6.31 2.46 11.07C2.46 15.83 6.31 19.69 11.07 19.69C13.31 19.69 15.46 18.82 17.07 17.26L17.26 17.07Z" fill="#252525" fill-opacity="1.000000" fill-rule="nonzero"/>
</svg>
