<svg width="20.000000" height="20.000000" viewBox="0 0 20 20" fill="none" xmlns="http://www.w3.org/2000/svg" xmlns:xlink="http://www.w3.org/1999/xlink">
	<desc>
			Created with Pixso.
	</desc>
	<defs/>
	<path id="Vector" d="M15.7832 14.3911L20 18.6069L18.6069 20L14.3911 15.7832C12.8223 17.0406 10.8711 17.7246 8.86084 17.7218C3.96973 17.7218 0 13.7521 0 8.86084C0 3.96973 3.96973 0 8.86084 0C13.752 0 17.7217 3.96973 17.7217 8.86084C17.7246 10.8713 17.0405 12.8224 15.7832 14.3911ZM13.8081 13.6605C15.0576 12.3756 15.7554 10.6532 15.7524 8.86084C15.7524 5.05273 12.668 1.96912 8.86084 1.96912C5.05273 1.96912 1.96924 5.05273 1.96924 8.86084C1.96924 12.6681 5.05273 15.7527 8.86084 15.7527C10.6533 15.7555 12.3755 15.0577 13.6606 13.8082L13.8081 13.6605Z" fill="#252525" fill-opacity="1.000000" fill-rule="nonzero"/>
</svg>
