<svg width="15.833252" height="15.833374" viewBox="0 0 15.8333 15.8334" fill="none" xmlns="http://www.w3.org/2000/svg" xmlns:xlink="http://www.w3.org/1999/xlink">
	<desc>
			Created with Pixso.
	</desc>
	<defs/>
	<path id="Vector" d="M7.91675 14.25C9.59644 14.25 11.2073 13.5828 12.395 12.395C13.5828 11.2073 14.25 9.59631 14.25 7.91663C14.25 6.23694 13.5828 4.6261 12.395 3.43835C11.2073 2.25061 9.59644 1.58337 7.91675 1.58337C6.23706 1.58337 4.62598 2.25061 3.43823 3.43835C2.25049 4.6261 1.58325 6.23694 1.58325 7.91663C1.58325 9.59631 2.25049 11.2073 3.43823 12.395C4.62598 13.5828 6.23706 14.25 7.91675 14.25ZM7.91675 15.8334C3.54419 15.8334 0 12.2891 0 7.91663C0 3.54431 3.54419 0 7.91675 0C12.2891 0 15.8333 3.54431 15.8333 7.91663C15.8333 12.2891 12.2891 15.8334 7.91675 15.8334ZM5.45459 8.8429L3.47705 8.2262C3.04956 8.09558 3.04712 7.80103 3.57275 7.58972L11.2781 4.61304C11.7253 4.43091 11.9788 4.66138 11.8337 5.2384L10.522 11.4293C10.4302 11.8702 10.165 11.9756 9.79688 11.7721L7.77734 10.2775L6.83594 11.1863C6.7395 11.2797 6.66113 11.3596 6.51221 11.3794C6.36426 11.4 6.24219 11.3557 6.15283 11.1102L5.46411 8.8374L5.45459 8.8429Z" fill="#E0BEA2" fill-opacity="1.000000" fill-rule="nonzero"/>
</svg>
